<svg width="529" height="609" viewBox="0 0 529 609" fill="none" xmlns="http://www.w3.org/2000/svg">
<rect opacity="0.8" x="49.8406" y="523.798" width="437.495" height="405.567" transform="rotate(-90 49.8406 523.798)"/>
<rect x="501.495" y="69.9164" width="240.584" height="121.614" transform="rotate(90 501.495 69.9164)"/>
<path d="M329.279 326L260.857 272.531L120.486 356.155L192.557 272.531L60.9951 363L89.4951 316.5L11.4951 328L92.4951 259L0 253.992L140.185 203.21L14.3043 171.851L161.748 167.45L68.2202 124.537L140.185 130.919L2.62946 24.98L185.017 106.505L155.527 19.1862L207.251 78.6032L227.985 46.6438L255.643 96.4776L273.748 61.1354L283.108 101.273L343.565 66.0245L321.909 130.919L353.734 111.736L329.279 147.049L528.99 144.869L329.279 183.87L375.102 194.978L338.305 197.755L482.715 249.132L347.495 239.5L407.579 291.236L321.909 269.5L329.279 326Z" fill="#FBCE51"/>
<mask id="mask0_2_417" style="mask-type:alpha" maskUnits="userSpaceOnUse" x="107" y="140" width="326" height="331">
<path d="M122.388 252.194L107.495 285.952V431.904L148.534 442.826V461.028L432.495 470.626V334.603H426.538L413.631 350.158L390.133 355.784L387.154 367.368L378.549 355.784H355.713L350.087 329.969L332.877 305.81V283.966L323.61 268.08L313.351 261.13L315.005 250.209L325.265 245.244L329.567 225.718L346.446 209.17V185.01L312.689 148.274L277.276 140L238.554 158.534L225.647 185.01L216.711 209.17H208.768L195.199 214.134H180.637L155.815 225.718L122.388 252.194Z" fill="#D9D9D9"/>
</mask>
<g mask="url(#mask0_2_417)">
<rect width="327.648" height="327.648" transform="matrix(-1 0 0 1 432.164 142.979)"/>
</g>
<path fill-rule="evenodd" clip-rule="evenodd" d="M102.862 289.5L118.612 249.275L153.364 221.749L179.609 209.501L207.947 204.537L221.381 183.187L235.097 155.052L276.745 135.118L315.134 144.087L351.08 183.205V211.116L333.796 228.061L329.306 248.436L319.221 253.316L327.081 264.835L342.495 283.966L337.51 304.328L355.713 324L359.445 351.151H380.879L385.084 356.812L386.34 351.928L411.051 346.011L424.362 329.969H441.495L437.129 475.419L143.9 465.508V446.387L102.862 435.466V289.5ZM148.534 442.826V461.028L432.495 470.626V334.603H426.538L413.631 350.158L390.133 355.784L387.154 367.368L378.549 355.784H355.713L350.087 329.969L332.877 305.81V283.966L323.61 268.08L313.351 261.13L315.005 250.209L325.265 245.244L329.567 225.718L346.446 209.17V185.01L312.689 148.274L276.745 144.087L238.554 158.534L225.647 185.01L216.711 209.17H208.768L195.199 214.134H180.637L155.815 225.718L122.388 252.194L107.495 285.952V431.904L148.534 442.826Z" fill="white"/>
<mask id="mask1_2_417" style="mask-type:alpha" maskUnits="userSpaceOnUse" x="233" y="428" width="269" height="155">
<path d="M475.272 485.61L501.286 491.574L446.834 551.594L432.553 547.463L411.766 547.834L378.473 536.385L360.286 535.027L360.047 539.558L351.965 549.227L336.574 544.138L307.488 551.386L297.404 545.012L291.964 546.372L286.624 543.771L281.101 551.823L274.998 559.124L276.389 561.683L276.611 565.983L272.513 567.713L270.54 574.832L266.768 577.758L262.826 582.475L255.899 581.972L239.495 566.733L233.427 556.412L234.049 550.407L238.753 547.246L243.054 543.088L249.377 541.939L253.133 538.754L258.823 540.067L276.645 531.849L275.45 527.771L275.729 522.908L281.107 523.067L283.259 518.429L273.305 510.109L286.237 489.919L316.19 454.085L351.367 442.345L385.44 428.555L419.897 453.412L475.272 485.61Z" fill="#D9D9D9"/>
</mask>
<g mask="url(#mask1_2_417)">
<rect x="292.781" y="291.206" width="286.44" height="429.607" transform="rotate(39.8926 292.781 291.206)"/>
</g>
<path fill-rule="evenodd" clip-rule="evenodd" d="M506.344 489.985L447.695 554.631L432.197 550.148L411.342 550.52L377.929 539.03L362.817 537.901L362.675 540.591L352.853 552.341L336.537 546.946L306.874 555.895L296.034 549.428L291.602 550.578L288.23 549.019L283.729 554.404L279.652 560.109L280.944 566.922L275.933 571.143L274.418 577.312L267.624 582.409L262.502 586.657L254.933 585.987L243.589 576.504L236.181 568.317L229.842 556.446L229.543 549.316L236.26 543.632L243.098 539.327L249.757 535.499L256.055 534.705L271.445 530.61L272.101 530.061L271.28 528.179L272.712 519.604L279.461 519.812L279.859 519.078L269.777 510.65L284.073 488.331L316.795 448.334L386.02 424.288L421.357 451.163L476.267 483.09L506.344 489.985ZM496.228 493.162L474.277 488.13L418.436 455.661L385.073 431.593L352.294 444.859L317.758 456.386L288.401 491.506L276.833 509.566L286.659 517.78L282.594 525.268L277.225 525.103L276.826 527.495L278.612 531.595L274.357 535.159L259.822 542.031L255.33 540.196L252.517 540.55L249.896 543.686L245.017 544.449L239.433 547.964L235.005 551.712L235.143 555L240.596 565.212L247.311 572.634L257.079 580.799L260.779 581.127L264.305 578.203L269.672 574.176L271.147 568.171L275.098 564.843L273.963 558.857L279.489 551.124L286.753 542.434L292.111 544.912L296.856 543.681L307.589 550.084L336.611 541.329L351.078 546.112L357.42 538.525L357.756 532.152L379.017 533.74L412.191 545.148L432.909 544.778L445.973 548.556L496.228 493.162Z" fill="url(#paint0_linear_2_417)"/>
<path d="M123.579 512.114L119.492 558.708L181.415 476.305L258.466 463.44L200.301 457.839L229.261 414.506L200.301 434.038L214.381 373.841L170.11 433.575L134.023 345.304L134.023 419.101L83.5041 395.489L101.222 438.599L13.5779 447.418L107.365 476.305L53.3893 499.529L113.443 499.529L81.2068 543.38L123.579 512.114Z" fill="#FBCE51"/>
<mask id="mask2_2_417" style="mask-type:alpha" maskUnits="userSpaceOnUse" x="105" y="427" width="140" height="144">
<path d="M108.06 441.875C105.938 443.44 105.794 444.73 105.987 445.179C108.808 448.345 108.953 449.786 108.673 450.11C108.205 454.564 108.447 457.561 110.083 463.081C111.719 468.6 114.582 473.397 119.514 479.719C124.446 486.042 124.055 489.571 125.369 492.023C126.42 493.985 127.81 495.325 128.374 495.75C130.553 498.935 132.205 500.062 132.759 500.227C138.097 502.895 142.83 500.197 144.53 498.514C151.654 498.163 150.735 490.636 149.379 488.041C148.295 485.966 146.589 482.413 145.871 480.896C146.182 479.901 145.849 479.064 145.643 478.77C145.885 475.585 146.666 474.287 147.027 474.037C153.13 481.417 153.428 490.792 152.814 494.556C152.143 501.06 150.858 515.192 151.089 519.689C151.378 525.309 157.055 530.44 158.801 531.767C160.198 532.828 161.468 533.543 161.928 533.767C170.177 545.833 169.771 549.938 168.786 552.174C167.8 554.409 164.558 556.723 165.833 559.198L173.56 570.256C177.085 575.301 249.225 525.526 244.214 518.356L236.841 507.805C234.47 506.043 230.511 509.109 227.337 509.064C224.14 509.019 214.308 500.06 211.872 496.574C211.504 493.218 209.86 493.922 209.897 490.919C209.935 487.915 206.199 485.024 205.817 484.708C205.434 484.393 203.539 481.866 202.714 481.472C201.888 481.078 199.748 480.47 199.14 478.952C198.538 477.446 197.297 476.258 196.705 475.692L196.692 475.679C196.105 475.118 194.429 475.545 193.542 473.025C192.656 470.505 191.303 469.218 190.579 468.785C189.856 468.352 189.461 467.139 189.06 466.61C188.658 466.082 187.987 462.991 186.99 461.842C185.994 460.694 184.271 457.633 183.528 455.833C182.786 454.032 181.128 453.284 178.778 449.772C176.427 446.261 176.246 447.624 173.397 444.358C170.547 441.092 168.966 440.083 167.96 439.601C166.953 439.119 164.643 436.92 163.249 435.884C161.855 434.848 159.861 434.798 156.768 432.732C153.676 430.667 152.146 430.396 151.08 430.419C150.014 430.443 147.589 428.89 146.347 428.366C145.105 427.843 140.952 427.652 140.083 427.589C139.214 427.526 137.606 426.847 136.512 427.199C135.418 427.551 129.184 428.145 127.969 428.324C126.754 428.503 123.167 430.081 120.476 431.394C117.786 432.708 116.22 435.039 113.13 437.404C110.041 439.769 110.713 439.918 108.06 441.875Z" fill="#D9D9D9"/>
</mask>
<g mask="url(#mask2_2_417)">
<rect width="471.553" height="314.868" transform="matrix(-0.819699 0.572795 0.572795 0.819699 254.606 205.986)"/>
</g>
<rect x="0.495117" y="609" width="609" height="528" transform="rotate(-90 0.495117 609)"/>
<defs>
<linearGradient id="paint0_linear_2_417" x1="351.718" y1="584.951" x2="299.413" y2="424.604" gradientUnits="userSpaceOnUse">
<stop stop-color="#E8DCD1"/>
<stop offset="1" stop-color="white"/>
</linearGradient>
</defs>
</svg>
